<svg width="196" height="112" viewBox="0 0 196 112" fill="none" xmlns="http://www.w3.org/2000/svg">
<path d="M78.8 39.0783L78.401 72.5988L194.719 73.0947L195.118 39.5743L78.8 39.0783Z" fill="#D7D7D7"/>
<path d="M31.8874 87.9074L51.9059 60.8439C52.6428 61.385 53.8741 62.0303 55.5465 62.0301C58.9707 62.0297 61.7815 59.2468 61.8057 55.8266C61.83 52.4063 59.0653 49.6226 55.6389 49.6237C53.9666 49.6239 52.7256 50.2695 51.9806 50.8108L32.3679 23.7539C39.2604 18.7504 47.3933 16.1052 55.8893 16.1036C77.8273 16.1011 95.5429 33.9188 95.3784 55.8235C95.2138 77.7281 77.2305 95.5499 55.2925 95.5524C46.7965 95.5527 38.7026 92.9086 31.8874 87.9074Z" fill="#C0BFBF"/>
</svg>
