<?xml version="1.0" standalone="no"?>
<svg xmlns="http://www.w3.org/2000/svg" xmlns:xlink="http://www.w3.org/1999/xlink" height="2000px" width="2000px">
  <defs>
    <pattern id="doodad" width="154.73" height="134" viewBox="0 0 34.64101615137755 30" patternUnits="userSpaceOnUse" patternTransform="rotate(71)">
      <rect width="100%" height="100%" fill="#2d3748"/>
      <path d="M-20-20h200v200h-200M33.34 25.75L25.98 21.5L18.62 25.75L18.62 34.25L25.98 38.5L33.34 34.25zM16.02 25.75L8.66 21.5L1.3 25.75L1.3 34.25L8.66 38.5L16.02 34.25zM7.36 10.75L0 6.5L-7.36 10.75L-7.36 19.25L0 23.5L7.36 19.25zM16.02-4.25L8.66-8.5L1.3-4.25L1.3 4.25L8.66 8.5L16.02 4.25zM33.34-4.25L25.98-8.5L18.62-4.25L18.62 4.25L25.98 8.5L33.34 4.25zM42 10.75L34.64 6.5L27.28 10.75L27.28 19.25L34.64 23.5L42 19.25zM24.68 10.75L17.32 6.5L9.96 10.75L9.96 19.25L17.32 23.5L24.68 19.25z" fill="#4a5568"/>
      <path d="M-20-20h200v200h-200M28.91 26L21.98 22L15.05 26L15.05 34L21.98 38L28.91 34zM11.59 26L4.66 22L-2.27 26L-2.27 34L4.66 38L11.59 34zM2.93 11L-4 7L-10.93 11L-10.93 19L-4 23L2.93 19zM11.59-4L4.66-8L-2.27-4L-2.27 4L4.66 8L11.59 4zM28.91-4L21.98-8L15.05-4L15.05 4L21.98 8L28.91 4zM37.57 11L30.64 7L23.71 11L23.71 19L30.64 23L37.57 19zM46.23 26L39.3 22L32.37 26L32.37 34L39.3 38L46.23 34zM20.25 41L13.32 37L6.39 41L6.39 49L13.32 53L20.25 49zM-5.73 26L-12.66 22L-19.59 26L-19.59 34L-12.66 38L-5.73 34zM-5.73-4L-12.66-8L-19.59-4L-19.59 4L-12.66 8L-5.73 4zM20.25-19L13.32-23L6.39-19L6.39-11L13.32-7L20.25-11zM46.23-4L39.3-8L32.37-4L32.37 4L39.3 8L46.23 4zM37.57 41L30.64 37L23.71 41L23.71 49L30.64 53L37.57 49zM2.93 41L-4 37L-10.93 41L-10.93 49L-4 53L2.93 49zM-14.39 11L-21.32 7L-28.25 11L-28.25 19L-21.32 23L-14.39 19zM2.93-19L-4-23L-10.93-19L-10.93-11L-4-7L2.93-11zM37.57-19L30.64-23L23.71-19L23.71-11L30.64-7L37.57-11zM54.89 11L47.96 7L41.03 11L41.03 19L47.96 23L54.89 19zM20.25 11L13.32 7L6.39 11L6.39 19L13.32 23L20.25 19z" fill="#1a202c"/>
    </pattern>
  </defs>
  <rect fill="url(#doodad)" height="200%" width="200%"/>
</svg>
