<svg width="516" height="512" viewBox="0 0 516 512" fill="none" xmlns="http://www.w3.org/2000/svg">
<path d="M389.227 180.009L365.517 203.742L448.386 285.25L472.095 261.517L389.227 180.009Z" fill="#D7D7D7"/>
<path d="M470.423 328.709L475.593 295.687C474.683 295.547 473.347 295.132 472.161 293.955C469.732 291.545 469.73 287.62 472.161 285.21C474.592 282.8 478.546 282.798 480.976 285.21C482.162 286.387 482.58 287.712 482.721 288.615L516 283.487C514.692 275.136 510.816 267.562 504.79 261.582C489.23 246.142 463.909 246.141 448.348 261.582C432.786 277.023 432.787 302.147 448.348 317.587C454.374 323.566 462.007 327.412 470.423 328.709Z" fill="#B0B0B0"/>
<path d="M363.273 182.403H152.726V120.736C152.726 63.142 199.952 16.285 257.999 16.285C316.046 16.285 363.272 63.141 363.272 120.736L363.273 182.403Z" fill="#3581E4" fill-opacity="0.975"/>
<path d="M363.273 182.403H257.999C257.999 182.403 257.999 38.789 257.999 16.284C316.047 16.284 363.272 63.14 363.272 120.735V182.403H363.273Z" fill="#1C69CD" fill-opacity="0.975"/>
<path d="M394.225 165.694H121.78V419.319H394.225V165.694Z" fill="#D7D7D7"/>
<path d="M394.214 165.694H257.997V419.319H394.214V165.694Z" fill="#B0B0B0"/>
<path d="M257.999 130.196C240.854 130.196 226.905 116.356 226.905 99.3439C226.905 82.3319 240.853 68.4919 257.999 68.4919C275.145 68.4919 289.093 82.3319 289.093 99.3439C289.093 116.356 275.145 130.196 257.999 130.196Z" fill="#65A8F5" fill-opacity="0.975"/>
<path d="M257.999 130.196C240.854 130.196 226.905 116.356 226.905 99.3439C226.905 82.3319 240.853 68.4919 257.999 68.4919C275.145 68.4919 289.093 82.3319 289.093 99.3439C289.093 116.356 275.145 130.196 257.999 130.196Z" fill="#65A8F5" fill-opacity="0.975"/>
<path d="M257.999 130.196V68.493C275.144 68.493 289.093 82.333 289.093 99.345C289.093 116.357 275.145 130.196 257.999 130.196Z" fill="#2E91EC" fill-opacity="0.975"/>
<path d="M337.278 309.217H178.722V218.35H337.279L337.278 309.217Z" fill="#3581E4" fill-opacity="0.975"/>
<path d="M337.278 309.217H257.999V218.35H337.278V309.217Z" fill="#1C69CD" fill-opacity="0.975"/>
<path d="M191.282 495.715H85.9543V322.484H191.282V495.715Z" fill="#8B8B8B"/>
<path d="M191.281 358.065H85.9584V391.482H191.281V358.065Z" fill="#6F6F6F"/>
<path d="M191.281 426.781H85.9584V460.198H191.281V426.781Z" fill="#6F6F6F"/>
<path d="M324.717 322.484H430.045V495.715H324.717V322.484Z" fill="#6F6F6F"/>
<path d="M430.037 358.065H324.714V391.482H430.037V358.065Z" fill="#444444"/>
<path d="M430.037 426.781H324.714V460.198H430.037V426.781Z" fill="#444444"/>
</svg>
